<svg width="77" height="32" viewBox="0 0 77 32" fill="none" xmlns="http://www.w3.org/2000/svg">
<path d="M0 0H8.32432V31.5789H0V0Z" fill="white"/>
<path d="M22.9783 14.753C22.2857 9.94022 21.9005 7.26505 21.8246 6.73109C21.4871 4.15479 21.1655 1.9129 20.8581 0C20.1602 0 16.6777 0 10.4053 0V31.5789H17.4675L17.4922 10.7277L20.4641 31.5789H25.4944L28.3125 10.2638L28.339 31.5789H35.3783V0H24.8459L22.9783 14.753Z" fill="white"/>
<path d="M48.1594 6.56928C48.2497 6.972 48.2967 7.8853 48.2967 9.31278C48.2967 10.5371 48.2967 20.3317 48.2967 21.556C48.2967 23.6577 48.1594 24.9449 47.8865 25.4196C47.6118 25.8942 46.8817 26.1297 45.698 26.1297C45.698 24.0568 45.698 7.47359 45.698 5.40069C46.5961 5.40069 47.2088 5.49598 47.5341 5.68295C47.8594 5.87172 48.069 6.16657 48.1594 6.56928ZM51.884 31.2571C52.8653 31.0432 53.6894 30.6656 54.358 30.1281C55.0249 29.5887 55.4929 28.8426 55.7604 27.888C56.0297 26.9351 56.1887 25.042 56.1887 22.2104C56.1887 21.103 56.1887 12.2307 56.1887 11.1214C56.1887 8.1334 56.0712 6.13061 55.8887 5.11304C55.7044 4.09367 55.2472 3.16778 54.5153 2.33718C53.7815 1.50658 52.7117 0.909704 51.3057 0.546542C49.8979 0.183379 47.6028 0 43.6107 0C43.2004 0 41.1511 0 37.459 0V31.5789H47.4491C49.7515 31.507 51.2298 31.401 51.884 31.2571Z" fill="white"/>
<path d="M68.7941 26.4663C68.6419 26.8621 67.9751 27.0626 67.4714 27.0626C66.9786 27.0626 66.6506 26.8709 66.4839 26.4859C66.3172 26.1025 66.2357 25.2277 66.2357 23.8577C66.2357 23.0343 66.2357 16.4434 66.2357 15.62C66.2357 14.2003 66.3081 13.3148 66.4549 12.9617C66.5999 12.6121 66.9188 12.4346 67.4116 12.4346C67.9153 12.4346 68.5912 12.6351 68.7651 13.038C68.9372 13.4408 69.0242 14.3015 69.0242 15.62C69.0242 16.1524 69.0242 18.8143 69.0242 23.6075C68.9717 25.249 68.8956 26.2019 68.7941 26.4663ZM58.2705 31.1708H65.7138C66.0237 29.98 66.194 29.3181 66.2284 29.185C66.9025 29.9836 67.6435 30.5834 68.4571 30.9809C69.267 31.3802 70.4792 31.5789 71.4177 31.5789C72.7241 31.5789 73.8511 31.2436 74.8024 30.571C75.7518 29.9002 76.357 29.1052 76.6143 28.1912C76.8716 27.2756 77.0002 25.8843 77.0002 24.0138C77.0002 23.139 77.0002 16.1435 77.0002 15.2686C77.0002 13.3876 76.9567 12.1595 76.8716 11.5828C76.7864 11.006 76.5328 10.4187 76.1106 9.81707C75.6884 9.21548 75.0742 8.74876 74.2697 8.41514C73.4652 8.08151 72.5158 7.9147 71.4214 7.9147C70.4701 7.9147 69.2525 8.10103 68.4408 8.46838C67.6308 8.83572 66.8952 9.39294 66.2357 10.14C66.2357 9.46392 66.2357 6.08509 66.2357 0H58.2705V31.1708Z" fill="white"/>
</svg>
