<svg width="47" height="52" viewBox="0 0 47 52" fill="none" xmlns="http://www.w3.org/2000/svg">
<path d="M40.0018 17.8662C39.4971 18.2733 39.1041 18.5448 38.9856 18.6364C37.9021 19.3615 36.7042 19.8983 35.4424 20.2241C34.7649 20.3972 34.6463 20.6041 34.8394 21.2861C35.7105 24.3226 35.5058 27.5675 34.2602 30.4701C33.8232 31.5286 32.9526 31.7967 31.9703 31.2199C31.6586 31.0367 31.3572 30.8365 31.0523 30.6397C28.3255 28.9027 25.6054 27.1419 23.7288 24.4277C23.5255 24.1325 23.3291 24.2581 23.1123 24.3531C20.1585 25.6253 17.2995 27.0401 15.0571 29.4421C14.2407 30.3242 13.0856 30.1003 12.591 29.0112C11.4529 26.4871 10.9719 23.8747 11.6426 21.1368C11.7679 20.6347 11.5613 20.5125 11.1514 20.4209C9.93862 20.2079 8.774 19.7781 7.7132 19.152C7.6082 19.0842 7.29317 18.8874 6.87313 18.6126C-2.36766 27.9425 2.46953 39.1215 5.14895 42.7992C17.0895 57.0316 36.5805 51.3963 43.0504 40.7941C44.4528 38.3717 49.2019 26.4124 40.0018 17.8662Z" fill="white"/>
<path d="M5.81641 14.8363C7.10023 14.6192 8.32307 14.4055 9.54253 14.2019C11.3683 13.8999 13.1704 13.4216 15.0538 13.6794C16.1495 13.8415 17.2155 14.1639 18.2176 14.6362C18.3342 14.6956 18.4349 14.782 18.5115 14.8882C18.5881 14.9944 18.6383 15.1173 18.658 15.2468C18.9618 16.2608 19.3202 17.2574 19.7318 18.2324C20.1891 19.3215 20.9174 19.7524 21.7642 19.3961C22.6111 19.0399 22.8651 18.246 22.4214 17.201C20.809 13.3978 20.3517 9.39782 20.5075 5.32657C20.5211 4.11625 20.8157 2.9257 21.3679 1.84905C21.6066 1.3417 22.0086 0.929459 22.5095 0.678566C23.1598 0.380008 23.5257 0.614104 23.5663 1.32318C23.5735 1.68447 23.5208 2.04445 23.4105 2.38849C22.3299 6.16118 22.9769 9.78459 24.3895 13.33C24.8027 14.3817 25.321 15.3893 25.8088 16.4105C26.2424 17.3266 27.0282 17.6794 27.7836 17.3198C28.6034 16.9296 28.915 16.0781 28.3866 15.1824C27.9428 14.4326 28.1867 14.1646 28.8473 13.8016C29.6923 13.3102 30.6276 12.9946 31.5972 12.8733C32.5668 12.7521 33.5509 12.8278 34.4906 13.0959C36.269 13.5878 38.0338 14.1646 40.0019 14.4156C39.1556 15.5286 38.068 16.4346 36.8212 17.0653C35.4685 17.7547 34.0172 18.2296 32.5192 18.4733C30.944 18.7719 30.5105 19.7591 31.3912 21.0653C32.2719 22.3715 32.4413 23.939 32.465 25.4758C32.4657 26.2955 32.3817 27.1129 32.2143 27.9152C32.1432 28.2816 32.0212 28.3359 31.696 28.1256C29.2707 26.5649 26.9537 24.8855 25.4666 22.324C24.9551 21.4521 24.3454 21.3062 23.3665 21.6455C20.3489 22.6898 17.5132 24.2009 14.9624 26.1239C14.5525 26.436 14.4915 26.2935 14.4 25.8694C14.0613 24.2138 14.3052 22.6158 14.7388 21.0246C15.2096 19.352 14.8709 18.7786 13.167 18.4563C10.8399 17.9814 8.63471 17.201 6.72423 15.7218C6.37336 15.4807 6.06631 15.1812 5.81641 14.8363V14.8363Z" fill="white"/>
</svg>
